<svg xmlns="http://www.w3.org/2000/svg" viewBox="0 0 60 60">
  <title>Planned</title>
  <g fill="none" fill-rule="evenodd">
    <path fill="#0B223C" d="M0 0h60v60H0z"/>
    <g transform="translate(16 14)">
      <path d="M18.7016589 12.5554222c0-3.39736707-2.6354008-6.00662866-6.0170207-6.00662866-2.4367777 0-4.62515085 1.32877679-5.66955598 3.05235314v5.90855112c1.04440513 1.7723662 3.18249398 3.0523532 5.66955598 3.0523532 3.3816199 0 6.0170207-2.5599739 6.0170207-6.0066288m6.8622998 0c0 6.9913873-4.9721126 12.6042121-11.3376035 12.6042121-3.0834339 0-6.01752345-1.3785623-7.21127298-3.3480794v10.8328417H.0029351V.49237926h7.01214712v2.85570015C8.20883175 1.37856236 11.1429213 0 14.2263552 0c6.3654909 0 11.3376035 5.56403501 11.3376035 12.5554222" fill="#FFF"/>
      <ellipse fill="#FE7B6C" cx="30.455691" cy="20.6386598" rx="4.47834646" ry="4.46712795"/>
    </g>
  </g>
</svg>